<?xml version="1.0" standalone="no"?>
<!DOCTYPE svg PUBLIC "-//W3C//DTD SVG 20010904//EN"
 "http://www.w3.org/TR/2001/REC-SVG-20010904/DTD/svg10.dtd">
<svg version="1.0" xmlns="http://www.w3.org/2000/svg"
 width="96.000000pt" height="96.000000pt" viewBox="0 0 96.000000 96.000000"
 preserveAspectRatio="xMidYMid meet">

<g transform="translate(0.000000,96.000000) scale(0.100000,-0.100000)"
fill="#000000" stroke="none">
<path d="M407 898 c-11 -8 -16 -20 -11 -31 5 -14 19 -17 69 -17 160 0 291 -84
358 -230 30 -64 30 -216 0 -280 -70 -151 -206 -236 -367 -228 -56 2 -71 0 -80
-14 -20 -32 7 -43 107 -43 85 0 98 3 170 37 95 46 164 113 209 206 31 64 33
72 33 182 0 110 -2 118 -33 182 -69 142 -206 235 -359 245 -57 4 -83 1 -96 -9z"/>
<path d="M253 844 c-46 -27 -53 -44 -28 -64 17 -15 39 -6 89 33 19 15 25 27
21 40 -10 24 -33 21 -82 -9z"/>
<path d="M457 744 c-4 -4 -7 -69 -7 -144 l0 -137 71 -47 c74 -50 102 -55 107
-20 2 16 -11 30 -57 60 l-60 39 -3 125 c-3 117 -4 125 -23 128 -12 2 -24 0
-28 -4z"/>
<path d="M110 697 c-25 -47 -22 -77 7 -77 20 0 73 87 66 108 -3 6 -15 12 -27
12 -17 0 -29 -12 -46 -43z"/>
<path d="M62 548 c-17 -17 -15 -103 2 -117 7 -6 21 -8 30 -5 14 5 16 18 14 68
-3 63 -19 81 -46 54z"/>
<path d="M83 344 c-7 -19 25 -93 46 -103 21 -11 41 -3 41 17 0 8 -9 35 -21 59
-22 45 -54 58 -66 27z"/>
<path d="M193 183 c-4 -11 4 -25 28 -45 42 -35 78 -46 90 -27 14 22 11 27 -33
59 -46 34 -75 38 -85 13z"/>
</g>
</svg>
