<?xml version="1.0" standalone="no"?>
<!DOCTYPE svg PUBLIC "-//W3C//DTD SVG 20010904//EN"
 "http://www.w3.org/TR/2001/REC-SVG-20010904/DTD/svg10.dtd">
<svg version="1.0" xmlns="http://www.w3.org/2000/svg"
 width="100.000000pt" height="100.000000pt" viewBox="0 0 100.000000 100.000000"
 preserveAspectRatio="xMidYMid meet">

<g transform="translate(0.000000,100.000000) scale(0.100000,-0.100000)"
fill="#000000" stroke="none">
<path d="M410 879 c-53 -24 -83 -50 -113 -99 -20 -32 -22 -52 -27 -228 l-5
-194 -33 -29 c-18 -16 -39 -29 -47 -29 -10 0 -15 -11 -15 -35 l0 -35 99 0 98
0 6 -28 c14 -72 92 -116 166 -93 44 13 79 51 88 93 l6 28 98 0 99 0 0 35 c0
24 -5 35 -15 35 -8 0 -29 13 -47 29 l-33 29 -3 140 -3 139 30 13 c102 42 90
202 -17 240 -38 13 -47 13 -88 -2 -40 -14 -50 -14 -80 -2 -47 20 -111 17 -164
-7z m144 -55 c11 -4 16 -19 16 -51 0 -56 29 -106 70 -123 l30 -12 0 -140 c0
-105 4 -146 15 -168 l16 -30 -201 0 -201 0 13 23 c9 15 15 83 18 208 5 180 6
187 31 226 15 22 42 47 60 56 34 17 104 22 133 11z m190 -9 c48 -49 6 -127
-60 -111 -74 19 -60 126 16 126 16 0 35 -7 44 -15z m-186 -610 c-21 -46 -95
-46 -116 0 l-12 25 70 0 70 0 -12 -25z"/>
</g>
</svg>
