<svg width="24" height="24" viewBox="0 0 24 24" fill="none" xmlns="http://www.w3.org/2000/svg">
<path d="M18.8761 12.9071L18.38 12.8451L18.3448 13.1263L18.5681 13.3009L18.8761 12.9071ZM20.8289 14.4341L21.1387 14.0417L21.1369 14.0402L20.8289 14.4341ZM20.9399 15.0264L21.373 15.2767L21.3789 15.2658L20.9399 15.0264ZM19.089 18.2286L18.656 17.9783L18.65 17.9891L19.089 18.2286ZM18.5245 18.4322L18.3381 18.8962L18.3423 18.8978L18.5245 18.4322ZM16.22 17.5067L16.4064 17.0427L16.1452 16.9378L15.92 17.1067L16.22 17.5067ZM14.656 18.4137L14.4664 17.951L14.2016 18.0595L14.161 18.3427L14.656 18.4137ZM14.3043 20.8662L13.8093 20.7952L13.8082 20.8041L14.3043 20.8662ZM9.69543 20.8662L10.1916 20.8041L10.1904 20.7952L9.69543 20.8662ZM9.34374 18.4137L9.83868 18.3427L9.79807 18.0595L9.53336 17.951L9.34374 18.4137ZM7.77969 17.5067L8.08455 17.1104L7.85827 16.9363L7.59335 17.0427L7.77969 17.5067ZM5.47526 18.4322L5.64613 18.9021L5.65391 18.8992L5.6616 18.8961L5.47526 18.4322ZM4.91072 18.2286L5.3498 17.9891L5.3436 17.9783L4.91072 18.2286ZM3.05977 15.0264L2.62069 15.2659L2.62689 15.2766L3.05977 15.0264ZM3.17083 14.4341L2.86282 14.0402L2.861 14.0417L3.17083 14.4341ZM5.12358 12.9071L5.43158 13.3009L5.65488 13.1263L5.61972 12.8451L5.12358 12.9071ZM5.12358 11.0931L5.61972 11.1552L5.65488 10.8739L5.43158 10.6993L5.12358 11.0931ZM3.17083 9.56611L2.861 9.95856L2.86282 9.95998L3.17083 9.56611ZM3.05977 8.97381L3.49025 9.22818L3.49265 9.22403L3.05977 8.97381ZM4.91072 5.77166L5.34374 6.02196L5.34967 6.01109L4.91072 5.77166ZM5.47526 5.56806L5.6616 5.10406L5.65746 5.10244L5.47526 5.56806ZM7.77969 6.49354L7.59335 6.95752L7.85453 7.06241L8.07969 6.89354L7.77969 6.49354ZM9.34374 5.58657L9.53336 6.04922L9.79807 5.94073L9.83868 5.65754L9.34374 5.58657ZM9.69543 3.13406L10.1904 3.20504L10.1916 3.19608L9.69543 3.13406ZM14.3043 3.13406L13.8081 3.19609L13.8094 3.20503L14.3043 3.13406ZM14.656 5.58657L14.161 5.65754L14.2016 5.94073L14.4664 6.04922L14.656 5.58657ZM16.22 6.49354L15.9152 6.88985L16.1414 7.06391L16.4064 6.95752L16.22 6.49354ZM18.5245 5.56806L18.3536 5.09816L18.3458 5.10099L18.3381 5.10408L18.5245 5.56806ZM19.089 5.77166L18.6499 6.01116L18.6561 6.02189L19.089 5.77166ZM20.9399 8.97381L21.379 8.73431L21.3728 8.72359L20.9399 8.97381ZM20.8289 9.56611L21.1369 9.95999L21.1387 9.95855L20.8289 9.56611ZM18.8761 11.0931L18.5681 10.6993L18.3448 10.8739L18.38 11.1552L18.8761 11.0931ZM19.3723 12.9691C19.4105 12.6632 19.4409 12.3441 19.4409 12.0001H18.4409C18.4409 12.2854 18.4158 12.5587 18.38 12.8451L19.3723 12.9691ZM21.1369 14.0402L19.1841 12.5132L18.5681 13.3009L20.5209 14.828L21.1369 14.0402ZM21.3789 15.2658C21.5995 14.8614 21.5173 14.3405 21.1387 14.0417L20.5191 14.8266C20.5072 14.8172 20.5019 14.8052 20.5005 14.7978C20.4999 14.7943 20.5 14.7916 20.5002 14.7898C20.5006 14.7878 20.5011 14.7868 20.501 14.787L21.3789 15.2658ZM19.5219 18.4788L21.3728 15.2766L20.5071 14.7762L18.6561 17.9783L19.5219 18.4788ZM18.3423 18.8978C18.7838 19.0706 19.2934 18.898 19.5279 18.468L18.65 17.9891C18.6548 17.9804 18.6649 17.9713 18.6771 17.967C18.6886 17.9629 18.6995 17.9638 18.7067 17.9665L18.3423 18.8978ZM16.0337 17.9707L18.3381 18.8961L18.7108 17.9682L16.4064 17.0427L16.0337 17.9707ZM14.8456 18.8763C15.4578 18.6254 16.0129 18.287 16.52 17.9067L15.92 17.1067C15.4646 17.4482 14.9832 17.7392 14.4664 17.951L14.8456 18.8763ZM14.7992 20.9371L15.1509 18.4846L14.161 18.3427L13.8094 20.7952L14.7992 20.9371ZM13.8508 21.7549C14.3213 21.7549 14.7398 21.4133 14.8004 20.9282L13.8082 20.8041C13.8105 20.7854 13.82 20.7714 13.8285 20.7642C13.8367 20.7571 13.8453 20.7549 13.8508 20.7549V21.7549ZM10.1489 21.7549H13.8508V20.7549H10.1489V21.7549ZM9.19929 20.9282C9.25992 21.4133 9.67846 21.7549 10.1489 21.7549V20.7549C10.1544 20.7549 10.163 20.7571 10.1712 20.7642C10.1797 20.7714 10.1892 20.7854 10.1916 20.8041L9.19929 20.9282ZM8.84881 18.4846L9.20049 20.9371L10.1904 20.7952L9.83868 18.3427L8.84881 18.4846ZM7.47484 17.903C7.9887 18.2983 8.54539 18.6268 9.15413 18.8763L9.53336 17.951C9.01302 17.7377 8.53318 17.4555 8.08455 17.1104L7.47484 17.903ZM5.6616 18.8961L7.96603 17.9707L7.59335 17.0427L5.28892 17.9682L5.6616 18.8961ZM4.47177 18.468C4.71473 18.9134 5.23783 19.0505 5.64613 18.9021L5.30439 17.9623C5.30936 17.9605 5.31262 17.9602 5.31409 17.9602C5.31549 17.9602 5.31717 17.9604 5.31962 17.9612C5.3222 17.9621 5.32708 17.9642 5.33305 17.9691C5.33941 17.9743 5.3454 17.9813 5.34967 17.9891L4.47177 18.468ZM2.62689 15.2766L4.47784 18.4788L5.3436 17.9783L3.49265 14.7762L2.62689 15.2766ZM2.861 14.0417C2.48244 14.3405 2.4002 14.8614 2.62082 15.2658L3.49872 14.787C3.49863 14.7868 3.49915 14.7878 3.49947 14.7898C3.49975 14.7916 3.49986 14.7943 3.49921 14.7978C3.49782 14.8052 3.49247 14.8172 3.48065 14.8266L2.861 14.0417ZM4.81558 12.5132L2.86282 14.0402L3.47883 14.828L5.43158 13.3009L4.81558 12.5132ZM4.5588 12.0001C4.5588 12.3346 4.58914 12.6627 4.62744 12.9691L5.61972 12.8451C5.58398 12.5591 5.5588 12.2765 5.5588 12.0001H4.5588ZM4.62744 11.0311C4.58914 11.3375 4.5588 11.6657 4.5588 12.0001H5.5588C5.5588 11.7237 5.58398 11.4411 5.61972 11.1552L4.62744 11.0311ZM2.86282 9.95998L4.81558 11.487L5.43158 10.6993L3.47883 9.17224L2.86282 9.95998ZM2.62931 8.71944C2.37683 9.14671 2.49638 9.67069 2.86101 9.95855L3.48065 9.17367C3.48761 9.17917 3.49279 9.18741 3.49474 9.19723C3.49575 9.20235 3.49595 9.20819 3.49494 9.21429C3.49389 9.22068 3.4918 9.22553 3.49023 9.22817L2.62931 8.71944ZM4.47784 5.52144L2.62689 8.72359L3.49265 9.22403L5.3436 6.02189L4.47784 5.52144ZM5.65746 5.10244C5.21589 4.92965 4.70633 5.10221 4.47177 5.53224L5.34967 6.01109C5.34489 6.01985 5.33485 6.02892 5.32264 6.03327C5.31113 6.03737 5.30018 6.03647 5.29306 6.03368L5.65746 5.10244ZM7.96603 6.02955L5.6616 5.10408L5.28892 6.03204L7.59335 6.95752L7.96603 6.02955ZM9.15413 5.12392C8.54187 5.37484 7.98679 5.71321 7.47969 6.09353L8.07969 6.89354C8.53509 6.55199 9.01654 6.26103 9.53336 6.04922L9.15413 5.12392ZM9.20049 3.06309L8.84881 5.5156L9.83868 5.65754L10.1904 3.20503L9.20049 3.06309ZM10.1489 2.24536C9.67846 2.24536 9.25992 2.58694 9.19929 3.07204L10.1916 3.19608C10.1892 3.21483 10.1797 3.2288 10.1712 3.23605C10.163 3.24311 10.1544 3.24536 10.1489 3.24536V2.24536ZM13.8508 2.24536H10.1489V3.24536H13.8508V2.24536ZM14.8004 3.07204C14.7398 2.58694 14.3213 2.24536 13.8508 2.24536V3.24536C13.8453 3.24536 13.8367 3.24311 13.8285 3.23605C13.82 3.2288 13.8105 3.21483 13.8082 3.19608L14.8004 3.07204ZM15.1509 5.5156L14.7992 3.06309L13.8094 3.20503L14.161 5.65754L15.1509 5.5156ZM16.5249 6.09722C16.011 5.70194 15.4543 5.3734 14.8456 5.12392L14.4664 6.04922C14.9867 6.26248 15.4665 6.54475 15.9152 6.88985L16.5249 6.09722ZM18.3381 5.10408L16.0337 6.02955L16.4064 6.95752L18.7108 6.03204L18.3381 5.10408ZM19.5279 5.53224C19.285 5.08682 18.7619 4.94969 18.3536 5.09816L18.6953 6.03796C18.6904 6.03976 18.6871 6.03999 18.6856 6.04C18.6842 6.04001 18.6825 6.03984 18.6801 6.039C18.6775 6.03812 18.6726 6.03598 18.6667 6.03111C18.6603 6.02593 18.6543 6.01891 18.65 6.01109L19.5279 5.53224ZM21.3728 8.72359L19.5219 5.52144L18.6561 6.02189L20.5071 9.22403L21.3728 8.72359ZM21.1387 9.95855C21.5173 9.65968 21.5995 9.13887 21.3789 8.73438L20.501 9.21323C20.5011 9.21339 20.5006 9.21243 20.5002 9.21044C20.5 9.20861 20.4999 9.20594 20.5005 9.20243C20.5019 9.195 20.5072 9.183 20.5191 9.17367L21.1387 9.95855ZM19.1841 11.487L21.1369 9.95998L20.5209 9.17224L18.5681 10.6993L19.1841 11.487ZM19.4409 12.0001C19.4409 11.6561 19.4105 11.337 19.3723 11.0311L18.38 11.1552C18.4158 11.4415 18.4409 11.7148 18.4409 12.0001H19.4409ZM11.9999 14.7393C10.4898 14.7393 9.2607 13.5101 9.2607 12.0001H8.2607C8.2607 14.0624 9.93755 15.7393 11.9999 15.7393V14.7393ZM14.739 12.0001C14.739 13.5101 13.5099 14.7393 11.9999 14.7393V15.7393C14.0622 15.7393 15.739 14.0624 15.739 12.0001H14.739ZM11.9999 9.26095C13.5099 9.26095 14.739 10.4901 14.739 12.0001H15.739C15.739 9.9378 14.0622 8.26095 11.9999 8.26095V9.26095ZM9.2607 12.0001C9.2607 10.4901 10.4898 9.26095 11.9999 9.26095V8.26095C9.93755 8.26095 8.2607 9.9378 8.2607 12.0001H9.2607Z" fill="white"/>
</svg>
